<svg id="Warstwa_1" data-name="Warstwa 1" xmlns="http://www.w3.org/2000/svg" viewBox="0 0 944.59 252.78"><defs><style>.cls-1{fill:#ff7a1a;}.cls-2,.cls-3,.cls-4{fill:none;stroke-miterlimit:10;}.cls-2,.cls-3{stroke:#000;}.cls-2{stroke-linecap:square;}.cls-2,.cls-4{stroke-width:3.13px;}.cls-3{stroke-width:1.56px;}.cls-4{stroke:#eb5b27;stroke-dasharray:9.39;}</style></defs><title>logo 10.q01</title><path d="M28.61,271.79v-74.4h3.85v74.4Zm47.46,0-39.5-39.26L72,197.39h5.51l-35.4,35.14,39.51,39.26Z" transform="translate(-28.61 -44.88)"/><path d="M144.31,264q-6.92,9.1-23,9.11t-23-9.11q-6.93-9.1-6.92-29.37t6.92-29.38q6.93-9.11,23-9.1t23,9.1q6.93,9.12,6.93,29.38T144.31,264ZM132.13,201.3A36.93,36.93,0,0,0,121.35,200a36.81,36.81,0,0,0-10.77,1.35,19.52,19.52,0,0,0-8,5Q98.9,210,97.11,217a72.29,72.29,0,0,0-1.8,17.64,72.2,72.2,0,0,0,1.8,17.63c1.2,4.67,3,8.21,5.45,10.65a19.41,19.41,0,0,0,8,5,36.81,36.81,0,0,0,10.77,1.35,36.93,36.93,0,0,0,10.78-1.35,19.38,19.38,0,0,0,8-5c2.44-2.44,4.26-6,5.46-10.65a72.75,72.75,0,0,0,1.79-17.63A72.84,72.84,0,0,0,145.6,217q-1.8-7-5.46-10.65A19.48,19.48,0,0,0,132.13,201.3Z" transform="translate(-28.61 -44.88)"/><path d="M172.4,271.79v-74.4h3.85l41.82,67.34V197.39h3.84v74.4h-3.84l-41.82-67.48v67.48Z" transform="translate(-28.61 -44.88)"/><path class="cls-1" d="M272.44,230.78l-17-9.71a21.49,21.49,0,0,1-7.26-5.94,13.09,13.09,0,0,1-2.08-7.58q0-6.26,4-8.35t12.52-2q11.16.18,19.69,1.09L282,201q-8.62-.54-18.79-.64c-2.29,0-4.09.05-5.39.14a17.84,17.84,0,0,0-4,.77,4.94,4.94,0,0,0-2.94,2.18,8,8,0,0,0-.91,4.08q0,6.36,6.89,10.34l16.7,9.44q5.72,3.27,7.3,8t.59,12.43h-3a25.28,25.28,0,0,0-.64-10.57A11.19,11.19,0,0,0,272.44,230.78Zm-25.13-7h2.9q-.72,6.45.55,10.39a11.12,11.12,0,0,0,5.44,6.31l17.06,9.61a21.32,21.32,0,0,1,7.16,6,13.24,13.24,0,0,1,2.18,7.75,12.31,12.31,0,0,1-.91,5,8.75,8.75,0,0,1-2.17,3.13,8.57,8.57,0,0,1-3.68,1.63,29.25,29.25,0,0,1-4.4.68c-1.33.09-3.14.14-5.44.14q-9.08-.09-19.6-1.09l.36-2.81q11.72.63,18.78.72c1.88,0,3.33,0,4.36,0a23.19,23.19,0,0,0,3.49-.41,6.83,6.83,0,0,0,2.95-1.14,6.06,6.06,0,0,0,1.72-2.26,8.33,8.33,0,0,0,.73-3.68q0-6.52-6.9-10.34l-16.6-9.44q-5.72-3.17-7.35-7.8T247.31,223.79Z" transform="translate(-28.61 -44.88)"/><path d="M358.28,197.61v3.85H331.35V272H327.5V201.46H300.56v-3.85Z" transform="translate(-28.61 -44.88)"/><path d="M404.33,234.68,421.78,272h-4.24l-18-38.48,2.24-1.09c1.33-.65,2.25-1.11,2.76-1.42s1.37-.83,2.57-1.6a12,12,0,0,0,2.69-2.24c.6-.73,1.26-1.58,2-2.57a10.08,10.08,0,0,0,1.6-3.33,15.25,15.25,0,0,0,.51-4q0-8.09-7.69-11.93t-19.11-3.85H376.88V272H373v-74.4h14.12q15.12,0,22.89,5.26a16.49,16.49,0,0,1,7.76,14.37,15.43,15.43,0,0,1-4,10.45A26.73,26.73,0,0,1,404.33,234.68Z" transform="translate(-28.61 -44.88)"/><path d="M441.79,197.61v37.2q0,19.11,6.09,26.87t16.74,7.76q10.65,0,16.74-7.76t6.09-26.87v-37.2h3.85v37.2q0,38.47-26.68,38.48t-26.68-38.48v-37.2Z" transform="translate(-28.61 -44.88)"/><path d="M514.39,272v-74.4h3.85V272Zm47.46,0-39.51-39.25,35.4-35.15h5.52l-35.4,35.15L567.36,272Z" transform="translate(-28.61 -44.88)"/><path d="M628.55,197.61v3.85H601.61V272h-3.85V201.46H570.83v-3.85Z" transform="translate(-28.61 -44.88)"/><path d="M647.79,197.61h49.64L667.29,268.8v28.86h-3.85V268.8l-30.15-71.19h4.11l28,65.8,26.3-62H647.79Z" transform="translate(-28.61 -44.88)"/><path d="M706,197.61l28,65.8,19.36-45.53,19.25,45.53,26.29-62H716.16v-3.85h88.5L772.6,273.29l-19.25-45.54L734,273.29l-32.07-75.68Z" transform="translate(-28.61 -44.88)"/><path d="M819.16,272v-74.4H823L864.82,265V197.61h3.85V272h-3.85L823,204.54V272Z" transform="translate(-28.61 -44.88)"/><path d="M893,197.61h3.85V272H893Z" transform="translate(-28.61 -44.88)"/><path d="M971,264.44q-7.06,8.85-23.09,8.85t-23-9.11q-6.93-9.1-6.93-29.37T925,205.43q6.91-9.1,23-9.1,18.6,0,25.27,12.18l-31.43,26.3h-6l32.45-27.07q-5.64-7.56-20.26-7.56a37,37,0,0,0-10.78,1.34,19.42,19.42,0,0,0-8,5q-3.66,3.66-5.46,10.65a72.84,72.84,0,0,0-1.79,17.64,72.84,72.84,0,0,0,1.79,17.64q1.8,7,5.46,10.64a19.34,19.34,0,0,0,8,5,37.31,37.31,0,0,0,10.78,1.34q14.63,0,20.26-7.57Z" transform="translate(-28.61 -44.88)"/><path class="cls-2" d="M302.69,164.54" transform="translate(-28.61 -44.88)"/><path class="cls-2" d="M299.56,170.8" transform="translate(-28.61 -44.88)"/><line class="cls-3" x1="834.36" y1="0.77" x2="1.23" y2="122.2"/><line class="cls-4" x1="471.76" y1="2.46" x2="863.03" y2="123.89"/></svg>