<?xml version="1.0" encoding="utf-8"?>
<!-- Generator: Adobe Illustrator 23.0.6, SVG Export Plug-In . SVG Version: 6.00 Build 0)  -->
<svg version="1.1" id="Warstwa_1" xmlns="http://www.w3.org/2000/svg" xmlns:xlink="http://www.w3.org/1999/xlink" x="0px" y="0px"
	 viewBox="0 0 8.4 7.4" style="enable-background:new 0 0 8.4 7.4;" xml:space="preserve">
<g id="Group_389" transform="translate(-1247.793 -605.807)">
	<g id="Line_158">
		<path d="M1251.5,613c-0.1,0-0.3,0-0.4-0.1l-3-3c-0.2-0.2-0.2-0.5,0-0.7s0.5-0.2,0.7,0l3,3c0.2,0.2,0.2,0.5,0,0.7
			C1251.8,613,1251.6,613,1251.5,613z"/>
	</g>
	<g id="Line_159">
		<path d="M1251.5,613c-0.1,0-0.2,0-0.3-0.1c-0.2-0.2-0.3-0.5-0.1-0.7l4-6c0.2-0.2,0.5-0.3,0.7-0.1c0.2,0.2,0.3,0.5,0.1,0.7l-4,6
			C1251.8,612.9,1251.7,613,1251.5,613z"/>
	</g>
</g>
</svg>
